<svg width="23" height="26" viewBox="0 0 23 26" fill="none" xmlns="http://www.w3.org/2000/svg">
<path d="M20.3442 3.17507H17.9629V0.595325C17.9629 0.266557 17.6963 0 17.3675 0H15.3831C15.0544 0 14.7878 0.266557 14.7878 0.595325V3.17507H8.43766V0.595325C8.43766 0.266557 8.17111 0 7.84234 0H5.85792C5.52915 0 5.2626 0.266557 5.2626 0.595325V3.17507H2.8813C1.56613 3.17507 0.5 4.24119 0.5 5.55636V23.0192C0.5 24.3344 1.56613 25.4005 2.8813 25.4005H20.3442C21.6593 25.4005 22.7255 24.3344 22.7255 23.0192V5.55636C22.7255 4.24119 21.6593 3.17507 20.3442 3.17507ZM20.0465 23.0192H3.17896C3.10002 23.0192 3.0243 22.9879 2.96848 22.932C2.91266 22.8762 2.8813 22.8005 2.8813 22.7216V7.93766H20.3442V22.7216C20.3442 22.8005 20.3128 22.8762 20.257 22.932C20.2012 22.9879 20.1254 23.0192 20.0465 23.0192ZM17.4246 13.0649L10.3646 20.0683C10.1312 20.2999 9.75427 20.2984 9.52269 20.065L5.7974 16.3095C5.56587 16.0761 5.56735 15.6992 5.80077 15.4676L6.92787 14.3496C7.16129 14.118 7.53823 14.1195 7.76976 14.353L9.95778 16.5587L15.4681 11.0926C15.7015 10.8611 16.0785 10.8625 16.31 11.096L17.4281 12.223C17.6596 12.4564 17.6581 12.8334 17.4246 13.0649Z" fill="black"/>
</svg>
