<svg width="15" height="18" viewBox="0 0 15 18" fill="none" xmlns="http://www.w3.org/2000/svg">
<path d="M4.91571 9.56571H3.58714C3.36793 9.56571 3.18857 9.38636 3.18857 9.16714V7.83857C3.18857 7.61936 3.36793 7.44 3.58714 7.44H4.91571C5.13493 7.44 5.31429 7.61936 5.31429 7.83857V9.16714C5.31429 9.38636 5.13493 9.56571 4.91571 9.56571ZM8.50286 9.16714V7.83857C8.50286 7.61936 8.3235 7.44 8.10429 7.44H6.77571C6.5565 7.44 6.37714 7.61936 6.37714 7.83857V9.16714C6.37714 9.38636 6.5565 9.56571 6.77571 9.56571H8.10429C8.3235 9.56571 8.50286 9.38636 8.50286 9.16714ZM11.6914 9.16714V7.83857C11.6914 7.61936 11.5121 7.44 11.2929 7.44H9.96429C9.74507 7.44 9.56571 7.61936 9.56571 7.83857V9.16714C9.56571 9.38636 9.74507 9.56571 9.96429 9.56571H11.2929C11.5121 9.56571 11.6914 9.38636 11.6914 9.16714ZM8.50286 12.3557V11.0271C8.50286 10.8079 8.3235 10.6286 8.10429 10.6286H6.77571C6.5565 10.6286 6.37714 10.8079 6.37714 11.0271V12.3557C6.37714 12.5749 6.5565 12.7543 6.77571 12.7543H8.10429C8.3235 12.7543 8.50286 12.5749 8.50286 12.3557ZM5.31429 12.3557V11.0271C5.31429 10.8079 5.13493 10.6286 4.91571 10.6286H3.58714C3.36793 10.6286 3.18857 10.8079 3.18857 11.0271V12.3557C3.18857 12.5749 3.36793 12.7543 3.58714 12.7543H4.91571C5.13493 12.7543 5.31429 12.5749 5.31429 12.3557ZM11.6914 12.3557V11.0271C11.6914 10.8079 11.5121 10.6286 11.2929 10.6286H9.96429C9.74507 10.6286 9.56571 10.8079 9.56571 11.0271V12.3557C9.56571 12.5749 9.74507 12.7543 9.96429 12.7543H11.2929C11.5121 12.7543 11.6914 12.5749 11.6914 12.3557ZM14.88 3.72V15.4114C14.88 16.2916 14.1659 17.0057 13.2857 17.0057H1.59429C0.714107 17.0057 0 16.2916 0 15.4114V3.72C0 2.83982 0.714107 2.12571 1.59429 2.12571H3.18857V0.398571C3.18857 0.179357 3.36793 0 3.58714 0H4.91571C5.13493 0 5.31429 0.179357 5.31429 0.398571V2.12571H9.56571V0.398571C9.56571 0.179357 9.74507 0 9.96429 0H11.2929C11.5121 0 11.6914 0.179357 11.6914 0.398571V2.12571H13.2857C14.1659 2.12571 14.88 2.83982 14.88 3.72ZM13.2857 15.2121V5.31429H1.59429V15.2121C1.59429 15.3217 1.68396 15.4114 1.79357 15.4114H13.0864C13.196 15.4114 13.2857 15.3217 13.2857 15.2121Z" fill="#7C7C7C"/>
</svg>
