<svg width="16" height="12" viewBox="0 0 16 12" fill="none" xmlns="http://www.w3.org/2000/svg">
<path d="M14.5825 0.160156H2.2975C1.51463 0.160156 0.880005 0.794783 0.880005 1.57766V10.0827C0.880005 10.8655 1.51463 11.5002 2.2975 11.5002H14.5825C15.3654 11.5002 16 10.8655 16 10.0827V1.57766C16 0.794783 15.3654 0.160156 14.5825 0.160156ZM14.5825 1.57766V2.78268C13.9204 3.32189 12.8647 4.16034 10.608 5.92746C10.1106 6.31866 9.12548 7.25849 8.44 7.24754C7.75464 7.25861 6.76916 6.31851 6.27203 5.92746C4.01563 4.16061 2.95974 3.32198 2.2975 2.78268V1.57766H14.5825ZM2.2975 10.0827V4.6016C2.97418 5.14057 3.9338 5.8969 5.39646 7.04224C6.04192 7.55032 7.17229 8.67195 8.44 8.66513C9.70149 8.67195 10.8175 7.56659 11.4833 7.04247C12.9459 5.89716 13.9058 5.14063 14.5825 4.60163V10.0827H2.2975Z" fill="#7C7C7C"/>
</svg>
