<svg width="25" height="24" viewBox="0 0 25 24" fill="none" xmlns="http://www.w3.org/2000/svg">
<path d="M12.4086 5.8467C9.00257 5.8467 6.25528 8.594 6.25528 12C6.25528 15.406 9.00257 18.1533 12.4086 18.1533C15.8146 18.1533 18.5619 15.406 18.5619 12C18.5619 8.594 15.8146 5.8467 12.4086 5.8467ZM12.4086 16.0004C10.2075 16.0004 8.40813 14.2064 8.40813 12C8.40813 9.7936 10.2022 7.99955 12.4086 7.99955C14.615 7.99955 16.409 9.7936 16.409 12C16.409 14.2064 14.6096 16.0004 12.4086 16.0004ZM20.2488 5.595C20.2488 6.39295 19.6062 7.03024 18.8136 7.03024C18.0156 7.03024 17.3783 6.38759 17.3783 5.595C17.3783 4.80241 18.021 4.15977 18.8136 4.15977C19.6062 4.15977 20.2488 4.80241 20.2488 5.595ZM24.3242 7.05166C24.2332 5.12909 23.794 3.42608 22.3856 2.02298C20.9825 0.619882 19.2795 0.180743 17.3569 0.0843468C15.3754 -0.0281156 9.43636 -0.0281156 7.45488 0.0843468C5.53766 0.175388 3.83466 0.614526 2.4262 2.01763C1.01775 3.42073 0.583964 5.12373 0.487568 7.0463C0.375106 9.02778 0.375106 14.9669 0.487568 16.9483C0.578609 18.8709 1.01775 20.5739 2.4262 21.977C3.83466 23.3801 5.53231 23.8193 7.45488 23.9157C9.43636 24.0281 15.3754 24.0281 17.3569 23.9157C19.2795 23.8246 20.9825 23.3855 22.3856 21.977C23.7887 20.5739 24.2278 18.8709 24.3242 16.9483C24.4367 14.9669 24.4367 9.03314 24.3242 7.05166ZM21.7644 19.0744C21.3467 20.1241 20.538 20.9327 19.483 21.3558C17.9032 21.9824 14.1544 21.8378 12.4086 21.8378C10.6627 21.8378 6.90863 21.977 5.33416 21.3558C4.28451 20.9381 3.47585 20.1294 3.05278 19.0744C2.4262 17.4946 2.5708 13.7458 2.5708 12C2.5708 10.2542 2.43156 6.50006 3.05278 4.92558C3.4705 3.87593 4.27916 3.06728 5.33416 2.6442C6.91399 2.01763 10.6627 2.16222 12.4086 2.16222C14.1544 2.16222 17.9085 2.02298 19.483 2.6442C20.5326 3.06192 21.3413 3.87058 21.7644 4.92558C22.3909 6.50541 22.2464 10.2542 22.2464 12C22.2464 13.7458 22.3909 17.4999 21.7644 19.0744Z" fill="#FCFCFC"/>
</svg>
