<svg width="14" height="23" viewBox="0 0 14 23" fill="none" xmlns="http://www.w3.org/2000/svg">
<path d="M10.785 21.9035L10.785 21.9035C11.0751 22.1936 11.5459 22.1936 11.836 21.9035L13.0103 20.7292C13.3 20.4395 13.3006 19.9702 13.0116 19.6795C13.0115 19.6794 13.0115 19.6794 13.0114 19.6793L5.03274 11.6639L4.68165 11.3112L5.03272 10.9584L13.011 2.9423L13.0111 2.94222C13.3003 2.65182 13.2998 2.18253 13.0098 1.89254L11.8355 0.718227C11.5454 0.428118 11.0746 0.428118 10.7845 0.718227L0.71759 10.7856L0.717581 10.7856C0.427473 11.0757 0.427473 11.5465 0.717581 11.8366L10.785 21.9035Z" stroke="#DCA44E"/>
</svg>
