<svg width="15" height="14" viewBox="0 0 15 14" fill="none" xmlns="http://www.w3.org/2000/svg">
<path d="M4.18639 5.11434C3.67205 5.11434 3.25651 5.52988 3.25651 6.04422C3.25651 6.55856 3.67205 6.9741 4.18639 6.9741C4.70073 6.9741 5.11627 6.55856 5.11627 6.04422C5.11627 5.52988 4.70073 5.11434 4.18639 5.11434ZM7.44096 5.11434C6.92663 5.11434 6.51109 5.52988 6.51109 6.04422C6.51109 6.55856 6.92663 6.9741 7.44096 6.9741C7.9553 6.9741 8.37084 6.55856 8.37084 6.04422C8.37084 5.52988 7.9553 5.11434 7.44096 5.11434ZM10.6955 5.11434C10.1812 5.11434 9.76566 5.52988 9.76566 6.04422C9.76566 6.55856 10.1812 6.9741 10.6955 6.9741C11.2099 6.9741 11.6254 6.55856 11.6254 6.04422C11.6254 5.52988 11.2099 5.11434 10.6955 5.11434ZM7.44096 0C3.33206 0 0.00192858 2.70537 0.00192858 6.04422C0.00192858 7.42741 0.580197 8.69437 1.53914 9.71434C1.10616 10.8592 0.20534 11.8298 0.19081 11.8414C-0.000977298 12.0448 -0.053283 12.3412 0.0571402 12.597C0.167563 12.8527 0.420374 13.0183 0.699338 13.0183C2.48645 13.0183 3.8958 12.2715 4.74141 11.6729C5.58121 11.9373 6.48784 12.0884 7.44096 12.0884C11.5499 12.0884 14.88 9.38307 14.88 6.04422C14.88 2.70537 11.5499 0 7.44096 0ZM7.44096 10.6936C6.6651 10.6936 5.89795 10.5745 5.16276 10.342L4.50313 10.1328L3.93648 10.5338C3.52094 10.8273 2.95139 11.1556 2.2656 11.3765C2.47773 11.0249 2.68405 10.6297 2.84387 10.2083L3.1519 9.39178L2.55329 8.7583C2.02732 8.19747 1.39675 7.2705 1.39675 6.04422C1.39675 3.48124 4.10793 1.39482 7.44096 1.39482C10.774 1.39482 13.4852 3.48124 13.4852 6.04422C13.4852 8.6072 10.774 10.6936 7.44096 10.6936Z" fill="#7C7C7C"/>
</svg>
