<svg width="14" height="15" viewBox="0 0 14 15" fill="none" xmlns="http://www.w3.org/2000/svg">
<path d="M9.1875 8.90625C8.34668 8.90625 7.94238 9.375 6.5625 9.375C5.18262 9.375 4.78125 8.90625 3.9375 8.90625C1.76367 8.90625 0 10.6699 0 12.8437V13.5938C0 14.3701 0.629883 15 1.40625 15H11.7187C12.4951 15 13.125 14.3701 13.125 13.5938V12.8437C13.125 10.6699 11.3613 8.90625 9.1875 8.90625ZM11.7187 13.5938H1.40625V12.8437C1.40625 11.4492 2.54297 10.3125 3.9375 10.3125C4.36523 10.3125 5.05957 10.7812 6.5625 10.7812C8.07715 10.7812 8.75684 10.3125 9.1875 10.3125C10.582 10.3125 11.7187 11.4492 11.7187 12.8437V13.5938ZM6.5625 8.4375C8.8916 8.4375 10.7812 6.54785 10.7812 4.21875C10.7812 1.88965 8.8916 0 6.5625 0C4.2334 0 2.34375 1.88965 2.34375 4.21875C2.34375 6.54785 4.2334 8.4375 6.5625 8.4375ZM6.5625 1.40625C8.1123 1.40625 9.375 2.66895 9.375 4.21875C9.375 5.76855 8.1123 7.03125 6.5625 7.03125C5.01269 7.03125 3.75 5.76855 3.75 4.21875C3.75 2.66895 5.01269 1.40625 6.5625 1.40625Z" fill="#7C7C7C"/>
</svg>
