<svg width="15" height="15" viewBox="0 0 15 15" fill="none" xmlns="http://www.w3.org/2000/svg">
<path d="M14.4556 10.5147L11.2006 9.11971C11.0615 9.06044 10.907 9.04796 10.7602 9.08413C10.6135 9.12029 10.4824 9.20316 10.3868 9.32024L8.9453 11.0815C6.68296 10.0148 4.8623 8.19413 3.79563 5.93179L5.55685 4.49026C5.67417 4.39484 5.75721 4.26379 5.79339 4.11696C5.82957 3.97013 5.81693 3.8155 5.75738 3.6765L4.36236 0.421441C4.297 0.271594 4.1814 0.14925 4.0355 0.0755033C3.8896 0.0017569 3.72254 -0.018769 3.56312 0.0174649L0.540572 0.714977C0.386878 0.750468 0.249752 0.837006 0.151574 0.960467C0.0533961 1.08393 -3.54048e-05 1.23702 1.76012e-08 1.39476C1.76012e-08 8.84942 6.0422 14.88 13.4852 14.88C13.643 14.8801 13.7962 14.8267 13.9197 14.7285C14.0432 14.6303 14.1298 14.4932 14.1653 14.3394L14.8628 11.3169C14.8988 11.1567 14.8779 10.989 14.8035 10.8425C14.7292 10.6961 14.6062 10.5802 14.4556 10.5147Z" fill="#7C7C7C"/>
</svg>
