<svg width="14" height="23" viewBox="0 0 14 23" fill="none" xmlns="http://www.w3.org/2000/svg">
<path d="M2.16393 0.717758L2.16391 0.717777L0.989726 1.89196C0.699953 2.18173 0.699401 2.65136 0.988485 2.94181L8.96701 10.9579L9.31808 11.3106L8.96701 11.6633L0.988485 19.6794C0.988484 19.6794 0.988483 19.6794 0.988483 19.6794C0.699401 19.9698 0.699954 20.4394 0.989727 20.7292L2.16391 21.9034C2.4542 22.1937 2.92477 22.1936 3.21498 21.9034L3.215 21.9034L13.2823 11.8361L13.2823 11.8361C13.5725 11.5459 13.5726 11.0753 13.2823 10.785C13.2823 10.785 13.2823 10.785 13.2823 10.785L3.215 0.717777C2.92472 0.427492 2.45414 0.427519 2.16393 0.717758Z" stroke="#DCA44E"/>
</svg>
