<svg width="15" height="15" viewBox="0 0 15 15" fill="none" xmlns="http://www.w3.org/2000/svg">
<path d="M9.23562 7.44004L14.7632 1.91216C14.9189 1.75638 14.9189 1.50395 14.7632 1.34851C13.6737 0.259073 11.9071 0.259073 10.8176 1.34851L6.98102 5.18544L6.15531 4.35973C6.29846 3.99703 6.37718 3.60211 6.37718 3.18859C6.37718 1.42756 4.94962 0 3.18859 0C1.42756 0 0 1.42756 0 3.18859C0 4.94962 1.42756 6.37718 3.18859 6.37718C3.33938 6.37718 3.48719 6.36655 3.63233 6.34629L4.72609 7.44004L3.63233 8.53379C3.48719 8.51353 3.33905 8.5029 3.18859 8.5029C1.42756 8.5029 0 9.93046 0 11.6915C0 13.4525 1.42756 14.8801 3.18859 14.8801C4.94962 14.8801 6.37718 13.4525 6.37718 11.6915C6.37718 11.278 6.29846 10.8831 6.15531 10.5204L6.98102 9.69464L10.8176 13.5316C11.9071 14.621 13.6737 14.621 14.7632 13.5316C14.9189 13.3761 14.9189 13.1237 14.7632 12.9679L9.23562 7.44004ZM3.18859 4.25145C2.60269 4.25145 2.12573 3.77449 2.12573 3.18859C2.12573 2.60269 2.60269 2.12573 3.18859 2.12573C3.77449 2.12573 4.25145 2.60269 4.25145 3.18859C4.25145 3.77449 3.77449 4.25145 3.18859 4.25145ZM3.18859 12.7544C2.60269 12.7544 2.12573 12.2774 2.12573 11.6915C2.12573 11.1056 2.60269 10.6286 3.18859 10.6286C3.77449 10.6286 4.25145 11.1056 4.25145 11.6915C4.25145 12.2774 3.77449 12.7544 3.18859 12.7544Z" fill="#7C7C7C"/>
</svg>
