<svg width="22" height="24" viewBox="0 0 22 24" fill="none" xmlns="http://www.w3.org/2000/svg">
<path d="M21.4032 9.84202C19.339 9.84696 17.3254 9.20321 15.6469 8.00171V16.3813C15.6464 17.9333 15.172 19.4482 14.2872 20.7233C13.4025 21.9984 12.1495 22.973 10.6959 23.5168C9.24233 24.0606 7.65735 24.1477 6.15292 23.7664C4.6485 23.3851 3.29634 22.5536 2.27725 21.383C1.25817 20.2125 0.620723 18.7587 0.450162 17.2161C0.279601 15.6735 0.584051 14.1156 1.3228 12.7507C2.06155 11.3858 3.19939 10.279 4.58418 9.57823C5.96896 8.87746 7.53468 8.61616 9.07197 8.82927V13.0439C8.36851 12.8227 7.6131 12.8293 6.91365 13.063C6.21419 13.2966 5.60645 13.7453 5.17722 14.345C4.74798 14.9446 4.5192 15.6646 4.52354 16.402C4.52788 17.1395 4.76513 17.8567 5.2014 18.4512C5.63767 19.0458 6.25066 19.4873 6.95282 19.7127C7.65498 19.9381 8.4104 19.9359 9.11122 19.7063C9.81203 19.4768 10.4224 19.0316 10.8551 18.4345C11.2879 17.8374 11.5209 17.1188 11.5209 16.3813V0H15.6469C15.6441 0.348435 15.6732 0.696395 15.7341 1.03948C15.8775 1.80537 16.1756 2.53396 16.6102 3.18068C17.0448 3.8274 17.6068 4.37867 18.2618 4.80075C19.1936 5.41688 20.2861 5.74528 21.4032 5.74505V9.84202Z" fill="#FCFCFC"/>
</svg>
