<svg width="31" height="24" viewBox="0 0 31 24" fill="none" xmlns="http://www.w3.org/2000/svg">
<path d="M27.3666 5.98123C27.3853 6.24372 27.3853 6.50626 27.3853 6.76875C27.3853 14.775 21.2916 24 10.1541 24C6.72281 24 3.53533 23.0062 0.854065 21.2813C1.34158 21.3375 1.81029 21.3563 2.31656 21.3563C5.14777 21.3563 7.75406 20.4 9.83531 18.7688C7.17281 18.7125 4.94155 16.9688 4.17279 14.5687C4.54782 14.625 4.92279 14.6625 5.31658 14.6625C5.86031 14.6625 6.4041 14.5874 6.91032 14.4563C4.13533 13.8937 2.05402 11.4562 2.05402 8.51249V8.43752C2.86024 8.88752 3.79781 9.16877 4.79149 9.20622C3.16024 8.1187 2.09153 6.26247 2.09153 4.16246C2.09153 3.03748 2.39147 2.00623 2.91651 1.10622C5.89777 4.78122 10.379 7.18118 15.404 7.44372C15.3103 6.99372 15.254 6.52502 15.254 6.05626C15.254 2.71872 17.954 0 21.3103 0C23.054 0 24.629 0.731248 25.7353 1.9125C27.104 1.65001 28.4165 1.14374 29.579 0.450003C29.129 1.85628 28.1727 3.03754 26.9165 3.78748C28.1353 3.6563 29.3165 3.31872 30.404 2.85002C29.5791 4.04997 28.5478 5.11868 27.3666 5.98123Z" fill="#FCFCFC"/>
</svg>
