<svg width="187" height="164" viewBox="0 0 187 164" fill="none" xmlns="http://www.w3.org/2000/svg">
<path d="M138.75 81.8125V83.3125H140.25H169.469C178.319 83.3125 185.5 90.4935 185.5 99.3438V146.094C185.5 154.944 178.319 162.125 169.469 162.125H122.719C113.868 162.125 106.688 154.944 106.688 146.094V58.4375C106.688 26.9792 132.167 1.5 163.625 1.5H166.547C170.576 1.5 173.812 4.73643 173.812 8.76562V26.2969C173.812 30.3261 170.576 33.5625 166.547 33.5625H163.625C149.904 33.5625 138.75 44.7163 138.75 58.4375V81.8125ZM33.5625 81.8125V83.3125H35.0625H64.2812C73.1315 83.3125 80.3125 90.4935 80.3125 99.3438V146.094C80.3125 154.944 73.1315 162.125 64.2812 162.125H17.5312C8.68097 162.125 1.5 154.944 1.5 146.094V58.4375C1.5 26.9792 26.9792 1.5 58.4375 1.5H61.3594C65.3886 1.5 68.625 4.73643 68.625 8.76562V26.2969C68.625 30.3261 65.3886 33.5625 61.3594 33.5625H58.4375C44.7163 33.5625 33.5625 44.7163 33.5625 58.4375V81.8125Z" stroke="#DCA44E" stroke-width="3"/>
</svg>
